<mxfile host="app.diagrams.net" agent="Mozilla/5.0 (Macintosh; Intel Mac OS X 10_15_7) AppleWebKit/537.36 (KHTML, like Gecko) Chrome/131.0.0.0 Safari/537.36 OPR/116.0.0.0" version="26.0.12">
  <diagram name="Page-1" id="dxtYAEbIqs1bFISsH1Hz">
    <mxGraphModel dx="1023" dy="1002" grid="0" gridSize="10" guides="1" tooltips="1" connect="1" arrows="1" fold="1" page="1" pageScale="1" pageWidth="850" pageHeight="1100" math="0" shadow="0">
      <root>
        <mxCell id="0" />
        <mxCell id="1" parent="0" />
        <mxCell id="2E882J0yjEembIXzqKQT-7" value="3" style="edgeStyle=orthogonalEdgeStyle;rounded=0;orthogonalLoop=1;jettySize=auto;html=1;" edge="1" parent="1" source="2E882J0yjEembIXzqKQT-2" target="2E882J0yjEembIXzqKQT-18">
          <mxGeometry relative="1" as="geometry">
            <mxPoint x="400" y="340" as="targetPoint" />
          </mxGeometry>
        </mxCell>
        <mxCell id="2E882J0yjEembIXzqKQT-13" value="2" style="edgeStyle=orthogonalEdgeStyle;rounded=0;orthogonalLoop=1;jettySize=auto;html=1;" edge="1" parent="1" source="2E882J0yjEembIXzqKQT-2" target="2E882J0yjEembIXzqKQT-10">
          <mxGeometry relative="1" as="geometry" />
        </mxCell>
        <mxCell id="2E882J0yjEembIXzqKQT-20" value="4" style="edgeStyle=orthogonalEdgeStyle;rounded=0;orthogonalLoop=1;jettySize=auto;html=1;" edge="1" parent="1" source="2E882J0yjEembIXzqKQT-2" target="2E882J0yjEembIXzqKQT-19">
          <mxGeometry relative="1" as="geometry" />
        </mxCell>
        <mxCell id="2E882J0yjEembIXzqKQT-2" value="Read buckets from S3 source and send to Ceph" style="rounded=0;whiteSpace=wrap;html=1;" vertex="1" parent="1">
          <mxGeometry x="340" y="220" width="120" height="60" as="geometry" />
        </mxCell>
        <mxCell id="2E882J0yjEembIXzqKQT-8" value="1" style="edgeStyle=orthogonalEdgeStyle;rounded=0;orthogonalLoop=1;jettySize=auto;html=1;" edge="1" parent="1" source="2E882J0yjEembIXzqKQT-5" target="2E882J0yjEembIXzqKQT-2">
          <mxGeometry relative="1" as="geometry" />
        </mxCell>
        <mxCell id="2E882J0yjEembIXzqKQT-5" value="Start" style="ellipse;whiteSpace=wrap;html=1;" vertex="1" parent="1">
          <mxGeometry x="340" y="80" width="120" height="80" as="geometry" />
        </mxCell>
        <mxCell id="2E882J0yjEembIXzqKQT-11" style="edgeStyle=orthogonalEdgeStyle;rounded=0;orthogonalLoop=1;jettySize=auto;html=1;" edge="1" parent="1" source="2E882J0yjEembIXzqKQT-9" target="2E882J0yjEembIXzqKQT-10">
          <mxGeometry relative="1" as="geometry" />
        </mxCell>
        <mxCell id="2E882J0yjEembIXzqKQT-9" value="User" style="shape=umlActor;verticalLabelPosition=bottom;verticalAlign=top;html=1;outlineConnect=0;" vertex="1" parent="1">
          <mxGeometry x="60" y="100" width="30" height="60" as="geometry" />
        </mxCell>
        <mxCell id="2E882J0yjEembIXzqKQT-15" style="edgeStyle=orthogonalEdgeStyle;rounded=0;orthogonalLoop=1;jettySize=auto;html=1;entryX=0.5;entryY=0;entryDx=0;entryDy=0;" edge="1" parent="1" source="2E882J0yjEembIXzqKQT-10" target="2E882J0yjEembIXzqKQT-14">
          <mxGeometry relative="1" as="geometry" />
        </mxCell>
        <mxCell id="2E882J0yjEembIXzqKQT-10" value="" style="outlineConnect=0;dashed=0;verticalLabelPosition=bottom;verticalAlign=top;align=center;html=1;shape=mxgraph.aws3.s3;fillColor=#E05243;gradientColor=none;" vertex="1" parent="1">
          <mxGeometry x="170" y="203.5" width="76.5" height="93" as="geometry" />
        </mxCell>
        <mxCell id="2E882J0yjEembIXzqKQT-17" style="edgeStyle=orthogonalEdgeStyle;rounded=0;orthogonalLoop=1;jettySize=auto;html=1;" edge="1" parent="1" source="2E882J0yjEembIXzqKQT-14" target="2E882J0yjEembIXzqKQT-16">
          <mxGeometry relative="1" as="geometry" />
        </mxCell>
        <mxCell id="2E882J0yjEembIXzqKQT-14" value="Event Notification of new changes on S3" style="whiteSpace=wrap;html=1;rounded=0;" vertex="1" parent="1">
          <mxGeometry x="148.25" y="340" width="120" height="60" as="geometry" />
        </mxCell>
        <mxCell id="2E882J0yjEembIXzqKQT-16" value="Logs" style="strokeWidth=2;html=1;shape=mxgraph.flowchart.database;whiteSpace=wrap;" vertex="1" parent="1">
          <mxGeometry x="178.25" y="460" width="60" height="60" as="geometry" />
        </mxCell>
        <mxCell id="2E882J0yjEembIXzqKQT-18" value="Ceph" style="outlineConnect=0;dashed=0;verticalLabelPosition=bottom;verticalAlign=top;align=center;html=1;shape=mxgraph.aws3.bucket_with_objects;fillColor=#E05243;gradientColor=none;" vertex="1" parent="1">
          <mxGeometry x="370" y="380" width="60" height="61.5" as="geometry" />
        </mxCell>
        <mxCell id="2E882J0yjEembIXzqKQT-23" value="6" style="edgeStyle=orthogonalEdgeStyle;rounded=0;orthogonalLoop=1;jettySize=auto;html=1;entryX=1;entryY=0.5;entryDx=0;entryDy=0;" edge="1" parent="1" source="2E882J0yjEembIXzqKQT-19" target="2E882J0yjEembIXzqKQT-22">
          <mxGeometry relative="1" as="geometry" />
        </mxCell>
        <mxCell id="2E882J0yjEembIXzqKQT-26" value="8" style="edgeStyle=orthogonalEdgeStyle;rounded=0;orthogonalLoop=1;jettySize=auto;html=1;" edge="1" parent="1" source="2E882J0yjEembIXzqKQT-19" target="2E882J0yjEembIXzqKQT-25">
          <mxGeometry relative="1" as="geometry" />
        </mxCell>
        <mxCell id="2E882J0yjEembIXzqKQT-19" value="Read Logs" style="whiteSpace=wrap;html=1;rounded=0;" vertex="1" parent="1">
          <mxGeometry x="600" y="530" width="120" height="60" as="geometry" />
        </mxCell>
        <mxCell id="2E882J0yjEembIXzqKQT-21" value="5" style="edgeStyle=orthogonalEdgeStyle;rounded=0;orthogonalLoop=1;jettySize=auto;html=1;entryX=0.5;entryY=1;entryDx=0;entryDy=0;entryPerimeter=0;exitX=0.5;exitY=1;exitDx=0;exitDy=0;" edge="1" parent="1" source="2E882J0yjEembIXzqKQT-19" target="2E882J0yjEembIXzqKQT-16">
          <mxGeometry relative="1" as="geometry" />
        </mxCell>
        <mxCell id="2E882J0yjEembIXzqKQT-24" value="7" style="edgeStyle=orthogonalEdgeStyle;rounded=0;orthogonalLoop=1;jettySize=auto;html=1;" edge="1" parent="1" source="2E882J0yjEembIXzqKQT-22" target="2E882J0yjEembIXzqKQT-18">
          <mxGeometry relative="1" as="geometry" />
        </mxCell>
        <mxCell id="2E882J0yjEembIXzqKQT-22" value="Apply changes on Ceph" style="whiteSpace=wrap;html=1;rounded=0;" vertex="1" parent="1">
          <mxGeometry x="340" y="530" width="120" height="60" as="geometry" />
        </mxCell>
        <mxCell id="2E882J0yjEembIXzqKQT-28" value="9" style="edgeStyle=orthogonalEdgeStyle;rounded=0;orthogonalLoop=1;jettySize=auto;html=1;" edge="1" parent="1" source="2E882J0yjEembIXzqKQT-25" target="2E882J0yjEembIXzqKQT-27">
          <mxGeometry relative="1" as="geometry" />
        </mxCell>
        <mxCell id="2E882J0yjEembIXzqKQT-25" value="Update applications to point new storage host" style="whiteSpace=wrap;html=1;rounded=0;" vertex="1" parent="1">
          <mxGeometry x="600" y="670" width="120" height="60" as="geometry" />
        </mxCell>
        <mxCell id="2E882J0yjEembIXzqKQT-30" value="10" style="edgeStyle=orthogonalEdgeStyle;rounded=0;orthogonalLoop=1;jettySize=auto;html=1;" edge="1" parent="1" source="2E882J0yjEembIXzqKQT-27" target="2E882J0yjEembIXzqKQT-29">
          <mxGeometry relative="1" as="geometry" />
        </mxCell>
        <mxCell id="2E882J0yjEembIXzqKQT-27" value="Update cache to point new storage host" style="whiteSpace=wrap;html=1;rounded=0;" vertex="1" parent="1">
          <mxGeometry x="400" y="670" width="120" height="60" as="geometry" />
        </mxCell>
        <mxCell id="2E882J0yjEembIXzqKQT-32" value="11" style="edgeStyle=orthogonalEdgeStyle;rounded=0;orthogonalLoop=1;jettySize=auto;html=1;" edge="1" parent="1" source="2E882J0yjEembIXzqKQT-29" target="2E882J0yjEembIXzqKQT-31">
          <mxGeometry relative="1" as="geometry" />
        </mxCell>
        <mxCell id="2E882J0yjEembIXzqKQT-29" value="Wait 30 days" style="whiteSpace=wrap;html=1;rounded=0;" vertex="1" parent="1">
          <mxGeometry x="200" y="670" width="120" height="60" as="geometry" />
        </mxCell>
        <mxCell id="2E882J0yjEembIXzqKQT-31" value="Delete S3" style="whiteSpace=wrap;html=1;rounded=0;" vertex="1" parent="1">
          <mxGeometry y="670" width="120" height="60" as="geometry" />
        </mxCell>
        <mxCell id="2E882J0yjEembIXzqKQT-33" value="12" style="edgeStyle=orthogonalEdgeStyle;rounded=0;orthogonalLoop=1;jettySize=auto;html=1;entryX=0;entryY=0.5;entryDx=0;entryDy=0;entryPerimeter=0;exitX=0.5;exitY=0;exitDx=0;exitDy=0;" edge="1" parent="1" source="2E882J0yjEembIXzqKQT-31" target="2E882J0yjEembIXzqKQT-10">
          <mxGeometry relative="1" as="geometry" />
        </mxCell>
      </root>
    </mxGraphModel>
  </diagram>
</mxfile>
